<svg xmlns="http://www.w3.org/2000/svg" viewBox="0 0 312.67 270"><defs><style>.cls-1{fill:#a7dad0;}</style></defs><title>Asset 20</title><g id="Layer_2" data-name="Layer 2"><g id="Layer_1-2" data-name="Layer 1"><path class="cls-1" d="M308.68,0H4A4,4,0,0,0,0,4V266a4,4,0,0,0,4,4H308.68a4,4,0,0,0,4-4V4A4,4,0,0,0,308.68,0ZM5.33,261.28V8.72A4.11,4.11,0,0,1,9.44,4.61H303.22a4.11,4.11,0,0,1,4.11,4.11V261.28a4.11,4.11,0,0,1-4.11,4.11H9.44A4.11,4.11,0,0,1,5.33,261.28Z"/><path class="cls-1" d="M261,26.66l-6.21-1-4.63-9.42a.57.57,0,0,0-1,0l-5.07,9.48-6,.95a.75.75,0,0,1-.86-.74V1.75h24.6V25.92A.75.75,0,0,1,261,26.66Z"/><path class="cls-1" d="M249.3,41.19l-8,4.2a.59.59,0,0,1-.86-.62l1.52-8.9a.56.56,0,0,0-.17-.52l-6.46-6.3a.59.59,0,0,1,.33-1l8.93-1.3a.62.62,0,0,0,.45-.32l4-8.1a.59.59,0,0,1,1.06,0l4,8.1a.62.62,0,0,0,.45.32l8.93,1.3a.59.59,0,0,1,.33,1l-6.46,6.3a.56.56,0,0,0-.17.52l1.52,8.9a.59.59,0,0,1-.86.62l-8-4.2A.59.59,0,0,0,249.3,41.19Z"/></g></g></svg>