<svg xmlns="http://www.w3.org/2000/svg" viewBox="0 0 24.33 24.84"><defs><style>.cls-1{fill:#0077be;}.cls-2{fill:#fff;}.cls-3{fill:none;stroke:#fff;stroke-miterlimit:10;stroke-width:2.57px;}</style></defs><title>Asset 17</title><g id="Layer_2" data-name="Layer 2"><g id="Layer_1-2" data-name="Layer 1"><path class="cls-1" d="M19.62,16.91a4,4,0,0,0-2.8,1.17l-9-4.39A4.53,4.53,0,0,0,7.92,13v0l9.63-5a3.86,3.86,0,0,0,2.07.6,4,4,0,1,0-4-4,3.77,3.77,0,0,0,.09.83l-9,4.66A3.9,3.9,0,0,0,4,9a4,4,0,1,0,2.76,6.8l9,4.55a4.75,4.75,0,0,0-.05.53,4,4,0,1,0,4-4Z"/><circle class="cls-2" cx="4.71" cy="12.3" r="3.96"/><circle class="cls-2" cx="20.37" cy="3.96" r="3.96"/><circle class="cls-2" cx="20.37" cy="20.23" r="3.96"/><polyline class="cls-3" points="20.37 20.23 4.71 12.3 19.44 4.72"/></g></g></svg>