<svg xmlns="http://www.w3.org/2000/svg" viewBox="0 0 27.63 26.82"><defs><style>.cls-1{fill:#0076bb;}.cls-2{fill:#fff;}</style></defs><title>Asset 11</title><g id="Layer_2" data-name="Layer 2"><g id="Layer_1-2" data-name="Layer 1"><path class="cls-1" d="M8.82,2.72S5.18,6.14,6.62,10.5L0,21.11H5.5l2.76,5.71L14.69,17l5.64,9.82,2.3-6.13,5-.33"/><circle class="cls-2" cx="14.69" cy="7.71" r="7.71"/><path class="cls-1" d="M14.69,14.34a6.63,6.63,0,1,1,6.63-6.63A6.63,6.63,0,0,1,14.69,14.34Zm0-12.4a5.77,5.77,0,1,0,5.77,5.77A5.78,5.78,0,0,0,14.69,1.94Z"/><path class="cls-2" d="M8.77,24.92l-2-4.85-5.27.11,6.3-9.71c.79,2.45,4.51,5,7.32,4.75Z"/><path class="cls-2" d="M20.21,24.92l2.16-4.8,5.26.24L21.57,10.5c-.85,2.43-4.63,4.94-7.42,4.57Z"/></g></g></svg>