<?xml version="1.0" encoding="utf-8"?>
<!-- Generator: Adobe Illustrator 15.1.0, SVG Export Plug-In . SVG Version: 6.00 Build 0)  -->
<!DOCTYPE svg PUBLIC "-//W3C//DTD SVG 1.1//EN" "http://www.w3.org/Graphics/SVG/1.1/DTD/svg11.dtd">
<svg version="1.1" id="Layer_1" xmlns="http://www.w3.org/2000/svg" xmlns:xlink="http://www.w3.org/1999/xlink" x="0px" y="0px"
	 width="30px" height="24px" viewBox="0 0 30 24" enable-background="new 0 0 30 24" xml:space="preserve">
<path fill="#B7ACCE" d="M26.098,3.49h-2.482V0.901h-3.699V3.49H9.979V0.901H6.279V3.49H3.902c-1.746,0-3.174,1.429-3.174,3.174
	v13.263c0,1.745,1.428,3.173,3.174,3.173h22.195c1.746,0,3.174-1.428,3.174-3.173V6.664C29.271,4.918,27.844,3.49,26.098,3.49z
	 M10.918,20.061H6.24v-4.679h4.678V20.061z M10.918,13.321H6.24V8.644h4.678V13.321z M17.496,20.061h-4.678v-4.679h4.678V20.061z
	 M17.496,13.321h-4.678V8.644h4.678V13.321z M24.078,20.061H19.4v-4.679h4.678V20.061z M24.078,13.321H19.4V8.644h4.678V13.321z"/>
</svg>
