<?xml version="1.0" encoding="utf-8"?>
<!-- Generator: Adobe Illustrator 15.1.0, SVG Export Plug-In . SVG Version: 6.00 Build 0)  -->
<!DOCTYPE svg PUBLIC "-//W3C//DTD SVG 1.1//EN" "http://www.w3.org/Graphics/SVG/1.1/DTD/svg11.dtd">
<svg version="1.1" id="Layer_1" xmlns="http://www.w3.org/2000/svg" xmlns:xlink="http://www.w3.org/1999/xlink" x="0px" y="0px"
	 width="25.562px" height="21.577px" viewBox="0 0 25.562 21.577" enable-background="new 0 0 25.562 21.577" xml:space="preserve">
<g>
	<g>
		<rect x="21.52" y="3.702" fill="#B7ACCE" width="3.488" height="14.214"/>
		<polygon fill="#B7ACCE" points="23.264,21.109 21.52,18.261 25.008,18.261 		"/>
		<path fill="#B7ACCE" d="M25.008,1.435c0-1.396-3.488-1.178-3.488,0c0,1.176,0,1.918,0,1.918h3.488
			C25.008,3.353,25.008,2.829,25.008,1.435z"/>
	</g>
	<path fill="#B7ACCE" d="M17.994,0.626H2.736c-1.201,0-2.182,0.982-2.182,2.182v16.021c0,1.2,0.98,2.182,2.182,2.182h15.258
		c1.201,0,2.182-0.981,2.182-2.182V2.808C20.176,1.608,19.195,0.626,17.994,0.626z M17.377,16.868H3.207v-6.177h14.17V16.868z"/>
</g>
</svg>
