<svg id="Layer_1" data-name="Layer 1" xmlns="http://www.w3.org/2000/svg" viewBox="0 0 176.33 97.99"><defs><style>.cls-1{fill:#e5842e;}.cls-2{fill:#6fcbde;}.cls-3{fill:#414142;}.cls-4{fill:#2065a6;}</style></defs><title>logo-ementores</title><path class="cls-1" d="M48.3,42.48A2.59,2.59,0,1,0,52,46.14a17.89,17.89,0,0,1,25.26,0A2.58,2.58,0,0,0,79,46.9a2.59,2.59,0,0,0,1.83-4.42,23.06,23.06,0,0,0-32.57,0" transform="translate(-4.17 -4.17)"/><path class="cls-1" d="M55.29,49.68a2.58,2.58,0,1,0,3.65,3.66,8,8,0,0,1,11.28,0,2.62,2.62,0,0,0,1.83.76,2.59,2.59,0,0,0,1.82-4.41,13.13,13.13,0,0,0-18.58,0" transform="translate(-4.17 -4.17)"/><path class="cls-2" d="M132.55,41.41a2.59,2.59,0,0,0-3.66-3.66,17.88,17.88,0,0,1-25.25,0A2.58,2.58,0,0,0,100,41.41a23,23,0,0,0,32.56,0" transform="translate(-4.17 -4.17)"/><path class="cls-2" d="M125.57,34.21a2.59,2.59,0,0,0-3.66-3.66,8,8,0,0,1-11.28,0A2.58,2.58,0,0,0,107,34.2a13.16,13.16,0,0,0,18.59,0" transform="translate(-4.17 -4.17)"/><path class="cls-1" d="M73.64,14.15c0,5.52-4.47,10.78-10,10.78s-10-5.26-10-10.78a10,10,0,0,1,20,0" transform="translate(-4.17 -4.17)"/><path class="cls-2" d="M126.25,16.59c0,5.51-4.47,10.77-10,10.77s-10-5.26-10-10.77a10,10,0,0,1,20,0" transform="translate(-4.17 -4.17)"/><path class="cls-3" d="M9.51,79.64c.35,2.54,2.46,3.71,4.85,3.71,2.65,0,4.47-2.07,5.82-2.07a2.29,2.29,0,0,1,2.11,2.22c0,2.21-4.57,4.35-8.39,4.35-5.79,0-9.64-4.21-9.64-9.89,0-5.21,3.78-10,9.21-10s9.25,5.07,9.25,9.35c0,1.54-.68,2.29-2.25,2.29Zm8.07-3.43c-.29-2.25-1.72-3.93-4.11-3.93A4.13,4.13,0,0,0,9.4,76.21Z" transform="translate(-4.17 -4.17)"/><path class="cls-3" d="M36.78,71.07a2.6,2.6,0,0,1,2.58-2.86,2.16,2.16,0,0,1,2.35,1.93A6.4,6.4,0,0,1,46.5,68a6.58,6.58,0,0,1,5.32,2.61A7.77,7.77,0,0,1,57.25,68c4.18,0,7,2.43,7,6.93v9.86a2.59,2.59,0,1,1-5.15,0v-9c0-2.07-1.14-3.54-3-3.54s-3,1.47-3,3.54v9a2.59,2.59,0,1,1-5.15,0v-9c0-2.07-1.14-3.54-3-3.54-2.11,0-3,1.47-3,3.54v9a2.59,2.59,0,1,1-5.15,0Z" transform="translate(-4.17 -4.17)"/><path class="cls-3" d="M71.36,79.64c.35,2.54,2.46,3.71,4.86,3.71,2.64,0,4.46-2.07,5.81-2.07a2.29,2.29,0,0,1,2.11,2.22c0,2.21-4.57,4.35-8.39,4.35-5.79,0-9.64-4.21-9.64-9.89,0-5.21,3.78-10,9.21-10s9.25,5.07,9.25,9.35c0,1.54-.68,2.29-2.25,2.29Zm8.07-3.43c-.29-2.25-1.72-3.93-4.11-3.93a4.13,4.13,0,0,0-4.07,3.93Z" transform="translate(-4.17 -4.17)"/><path class="cls-3" d="M86.39,71.07A2.6,2.6,0,0,1,89,68.21a2.16,2.16,0,0,1,2.36,1.89c1-1.39,2.54-2.11,5-2.11,4,0,7,2.58,7,6.93v9.86a2.58,2.58,0,1,1-5.14,0v-9a3.33,3.33,0,1,0-6.65,0v9a2.58,2.58,0,1,1-5.14,0Z" transform="translate(-4.17 -4.17)"/><path class="cls-3" d="M107.5,72.92h-1.15a2.08,2.08,0,0,1-2.24-2.25,2.2,2.2,0,0,1,2.24-2.25h1.15V65.35a2.58,2.58,0,1,1,5.14,0v3.07h1.47a2.26,2.26,0,1,1,0,4.5h-1.47V84.78a2.58,2.58,0,1,1-5.14,0Z" transform="translate(-4.17 -4.17)"/><path class="cls-3" d="M134.5,78c0,5.36-3.68,9.89-9.21,9.89s-9.22-4.53-9.22-9.89c0-5.21,3.79-10,9.22-10s9.21,4.75,9.21,10m-13.29,0c0,2.46,1.29,5.18,4.08,5.18s4.07-2.72,4.07-5.18-1.25-5.25-4.07-5.25-4.08,2.79-4.08,5.25" transform="translate(-4.17 -4.17)"/><path class="cls-3" d="M136.61,70.78a2.52,2.52,0,0,1,2.64-2.57c1.36,0,2.5.5,2.5,2.14h.07a4.06,4.06,0,0,1,3.61-2.14,2.51,2.51,0,0,1,2.5,2.75c0,1.68-1.54,1.79-3.07,2.5s-3.11,1.39-3.11,3.43v7.89a2.58,2.58,0,1,1-5.14,0Z" transform="translate(-4.17 -4.17)"/><path class="cls-3" d="M149.78,79.64c-1.57,0-2.25-.75-2.25-2.29,0-4.28,3.68-9.35,9.25-9.35S166,72.75,166,78c0,5.68-3.86,9.89-9.65,9.89-3.81,0-8.39-2.14-8.39-4.35a2.29,2.29,0,0,1,2.11-2.22c1.36,0,3.18,2.07,5.82,2.07,2.4,0,4.5-1.17,4.86-3.71Zm11.08-3.43a4.14,4.14,0,0,0-4.08-3.93c-2.39,0-3.82,1.68-4.1,3.93Z" transform="translate(-4.17 -4.17)"/><path class="cls-3" d="M177.93,74c-1,0-2.93-1.5-4.61-1.5-.93,0-1.75.42-1.75,1.42,0,2.4,8.93,2,8.93,7.9,0,3.43-2.89,6-7.32,6-2.89,0-7.18-1.64-7.18-4a2.42,2.42,0,0,1,2.21-2.29c2,0,2.9,1.75,5.33,1.75,1.57,0,2-.5,2-1.46,0-2.36-8.93-2-8.93-7.89,0-3.58,2.9-6,7-6,2.53,0,6.42,1.18,6.42,3.72a2.22,2.22,0,0,1-2.1,2.29" transform="translate(-4.17 -4.17)"/><path class="cls-1" d="M33.07,77.61a3.73,3.73,0,1,1-3.73-3.73,3.73,3.73,0,0,1,3.73,3.73" transform="translate(-4.17 -4.17)"/><path class="cls-3" d="M9.84,97.4a.58.58,0,1,1,0-1.15h2.07c.63,0,.9.24.9,1,0,2.41-.87,4.79-4.26,4.79-2.88,0-4.38-2.48-4.38-5.07S5.61,91.9,8.73,91.9c2,0,3.42,1.07,3.42,1.6a.57.57,0,0,1-.59.59c-.62,0-1.12-1.12-2.91-1.12-2.25,0-3.16,2.1-3.16,4s.89,4,3.21,4a2.91,2.91,0,0,0,2.88-3V97.4Z" transform="translate(-4.17 -4.17)"/><path class="cls-3" d="M18.36,100.82h3a.58.58,0,1,1,0,1.15H17.78a.61.61,0,0,1-.66-.67V92.66a.61.61,0,0,1,.66-.67h3.55a.53.53,0,0,1,.6.57.54.54,0,0,1-.6.58h-3V96.4h2.7a.55.55,0,0,1,.61.58.54.54,0,0,1-.61.57h-2.7Z" transform="translate(-4.17 -4.17)"/><path class="cls-3" d="M27.81,101.39a.62.62,0,1,1-1.24,0V92.63c0-.49.17-.73.56-.73s.54.16.87.65l5,7.25h0V92.56a.62.62,0,1,1,1.23,0v8.76c0,.49-.17.73-.56.73s-.53-.15-.87-.64l-5-7.25h0Z" transform="translate(-4.17 -4.17)"/><path class="cls-3" d="M40.85,93.14H39a.54.54,0,0,1-.6-.58A.53.53,0,0,1,39,92h5a.54.54,0,0,1,.61.57.55.55,0,0,1-.61.58H42.08v8.25a.59.59,0,0,1-.62.66.59.59,0,0,1-.61-.66Z" transform="translate(-4.17 -4.17)"/><path class="cls-3" d="M49.84,100.82h3a.58.58,0,1,1,0,1.15H49.27a.61.61,0,0,1-.66-.67V92.66a.61.61,0,0,1,.66-.67h3.55a.53.53,0,0,1,.6.57.54.54,0,0,1-.6.58h-3V96.4h2.71a.54.54,0,0,1,.6.58.53.53,0,0,1-.6.57H49.84Z" transform="translate(-4.17 -4.17)"/><path class="cls-3" d="M71.57,101a3.89,3.89,0,0,1-2.79,1.08c-2.84,0-4.37-2.48-4.37-5.07s1.53-5.08,4.37-5.08,4.38,2.49,4.38,5.08a5.89,5.89,0,0,1-.87,3.15l1,1a.69.69,0,0,1,.23.5.52.52,0,0,1-.53.51.6.6,0,0,1-.47-.22ZM70,99.37a.61.61,0,0,1-.26-.46.54.54,0,0,1,.55-.56.59.59,0,0,1,.46.23l.69.67A5.54,5.54,0,0,0,71.84,97c0-1.91-.81-4-3.06-4s-3,2.1-3,4,.81,4,3,4a2.65,2.65,0,0,0,2-.8Z" transform="translate(-4.17 -4.17)"/><path class="cls-3" d="M77.62,92.56a.62.62,0,1,1,1.23,0v5.93a2.64,2.64,0,0,0,5.27,0V92.56a.6.6,0,0,1,.62-.66.59.59,0,0,1,.61.66V98c0,3.36-2.15,4-3.87,4s-3.86-.67-3.86-4Z" transform="translate(-4.17 -4.17)"/><path class="cls-3" d="M91.44,100.82h3a.58.58,0,1,1,0,1.15H90.86a.61.61,0,0,1-.66-.67V92.66a.61.61,0,0,1,.66-.67h3.55a.53.53,0,0,1,.6.57.54.54,0,0,1-.6.58h-3V96.4h2.7a.55.55,0,0,1,.61.58.54.54,0,0,1-.61.57h-2.7Z" transform="translate(-4.17 -4.17)"/><path class="cls-3" d="M110.38,101c1.5,0,2.15-.9,2.67-.9.3,0,.5.22.5.58,0,.62-1.42,1.38-3.17,1.38-2.89,0-4.37-2.48-4.37-5.07s1.48-5.08,4.44-5.08c1.76,0,2.89,1,2.89,1.46a.54.54,0,0,1-.51.59c-.56,0-.84-1-2.38-1-2.22,0-3.13,2.1-3.13,4s.94,4,3.06,4" transform="translate(-4.17 -4.17)"/><path class="cls-3" d="M121.91,91.9c2.85,0,4.38,2.49,4.38,5.08s-1.53,5.07-4.38,5.07-4.37-2.48-4.37-5.07,1.53-5.08,4.37-5.08m0,9.09c2.25,0,3.06-2.11,3.06-4s-.81-4-3.06-4-3,2.1-3,4,.81,4,3,4" transform="translate(-4.17 -4.17)"/><path class="cls-3" d="M132,101.39a.59.59,0,0,1-.61.66.59.59,0,0,1-.62-.66V92.63c0-.49.17-.73.56-.73s.53.16.87.65l5.05,7.25h0V92.56a.62.62,0,1,1,1.24,0v8.76c0,.49-.17.73-.56.73s-.53-.15-.87-.64l-5-7.25h0Z" transform="translate(-4.17 -4.17)"/><path class="cls-3" d="M144.58,100.82h3a.58.58,0,1,1,0,1.15H144a.61.61,0,0,1-.66-.67V92.66A.61.61,0,0,1,144,92h3.54a.54.54,0,0,1,.61.57.55.55,0,0,1-.61.58h-3V96.4h2.71a.54.54,0,0,1,.6.58.53.53,0,0,1-.6.57h-2.71Z" transform="translate(-4.17 -4.17)"/><path class="cls-3" d="M156.79,101c1.5,0,2.16-.9,2.68-.9.29,0,.49.22.49.58,0,.62-1.42,1.38-3.17,1.38-2.89,0-4.37-2.48-4.37-5.07s1.48-5.08,4.44-5.08c1.77,0,2.89,1,2.89,1.46a.54.54,0,0,1-.51.59c-.56,0-.84-1-2.38-1-2.21,0-3.12,2.1-3.12,4s.93,4,3,4" transform="translate(-4.17 -4.17)"/><path class="cls-3" d="M166,93.14h-1.86a.54.54,0,0,1-.6-.58.53.53,0,0,1,.6-.57h5a.54.54,0,0,1,.61.57.55.55,0,0,1-.61.58h-1.86v8.25a.62.62,0,1,1-1.24,0Z" transform="translate(-4.17 -4.17)"/><path class="cls-3" d="M173.26,101.59a.6.6,0,0,1-.6.46.54.54,0,0,1-.59-.52,2.58,2.58,0,0,1,.17-.61l3.1-8.26c.15-.43.41-.76.88-.76s.73.33.88.76l3.1,8.26a2.58,2.58,0,0,1,.17.61.54.54,0,0,1-.59.52.61.61,0,0,1-.6-.46l-.65-1.8h-4.62Zm3-8.26h0l-1.92,5.4h3.87Z" transform="translate(-4.17 -4.17)"/><path class="cls-4" d="M88.28,43.36c-.27-.4-.55-.8-.84-1.19a14.16,14.16,0,0,0,.84,1.19" transform="translate(-4.17 -4.17)"/><path class="cls-2" d="M139.91,44.88a2.65,2.65,0,0,0-3.73,0,28.32,28.32,0,0,1-33.82,4.53,28.47,28.47,0,0,1-9.56-8.76A33.41,33.41,0,0,0,79.05,28.72,21.4,21.4,0,0,1,91,46.91a33.63,33.63,0,0,0,48.86,1.7,2.64,2.64,0,0,0,0-3.73" transform="translate(-4.17 -4.17)"/><path class="cls-1" d="M79.05,28.72c-.55-.27-1.1-.51-1.67-.73a33.54,33.54,0,0,0-12.65-2.47A33,33,0,0,0,41.1,35.44a2.64,2.64,0,1,0,3.75,3.71,28,28,0,0,1,9.87-6.52,27.66,27.66,0,0,1,10-1.83A28.29,28.29,0,0,1,87.44,42.17c.29.39.57.79.84,1.19l.12.18,0,.05A33.8,33.8,0,0,0,91,46.91a21.38,21.38,0,0,0-12-18.19" transform="translate(-4.17 -4.17)"/></svg>