<svg id="Layer_1" data-name="Layer 1" xmlns="http://www.w3.org/2000/svg" xmlns:xlink="http://www.w3.org/1999/xlink" viewBox="0 0 79.5 95.5"><defs><style>.cls-1,.cls-6{fill:none;}.cls-2{opacity:0.53;}.cls-3{clip-path:url(#clip-path);}.cls-4{fill:#283565;}.cls-5{fill:#fff;}.cls-6{stroke:#1c9aae;stroke-miterlimit:10;}</style><clipPath id="clip-path"><rect class="cls-1" x="11.25" y="0.76" width="54.3" height="89.04"/></clipPath></defs><title>rombos</title><g class="cls-2"><g class="cls-3"><path class="cls-4" d="M34.08,20.08a0,0,0,0,1,0,0,0,0,0,0,0,0,0"/><path class="cls-4" d="M34.09,20.16v0"/><path class="cls-4" d="M34.05,20l0,0,0,0"/><path class="cls-4" d="M34,19.9l-.07-.08.07.08"/><path class="cls-5" d="M27.67.78a6,6,0,0,0-5.25,4.58c-.55,2.44.44,4.81,3,7.25,1.22,1.14,2.35,2.42,3.45,3.65.61.7,1.25,1.41,1.9,2.11l.9.95c.43.44.86.91,1.29,1.36a.62.62,0,0,0,.53.21.66.66,0,0,0,.37-.17.64.64,0,0,0,.1-.13c.46-.53,5.16-5.35,6.31-6.51l1-1C42.89,11.63,44.62,10,45,7.63a5.71,5.71,0,0,0-1.52-4.9A5.63,5.63,0,0,0,38.82,1a5.84,5.84,0,0,0-3.49,1.71l-.14.15a16.77,16.77,0,0,0-1.51,1.61,6,6,0,0,0-6-3.73M34,20.55a.68.68,0,0,0,.07-.28h0v-.11a.25.25,0,0,0,0-.08,0,0,0,0,1,0,0s0,0,0-.07l0,0,0-.06-.07-.08.07.08L34,20l0,0s0,.05,0,.07a0,0,0,0,0,0,0,.25.25,0,0,1,0,.08v.11h0a.64.64,0,0,1-.07.28M34.22,6c0-.17.3-.7,1.86-2.23l.15-.14A4.55,4.55,0,0,1,39,2.3a4.34,4.34,0,0,1,3.56,1.31,4.49,4.49,0,0,1,1.18,3.84c-.27,1.93-1.76,3.34-3.21,4.7-.36.33-.73.69-1.08,1s-1.86,1.89-3.42,3.5l-2.07,2.14-.45.48-.83-.87-.89-.94c-.64-.68-1.27-1.39-1.88-2.08-1.12-1.26-2.27-2.56-3.53-3.74-2.24-2.1-3.11-4.08-2.67-6a4.72,4.72,0,0,1,4-3.59h.08C30.57,1.8,32.4,4,33,6.29A.64.64,0,0,0,34.22,6"/><path class="cls-5" d="M48.84,13.83l-16.29,15a3.33,3.33,0,0,0-.2,4.68l9.51,10.36a3.31,3.31,0,0,0,4.68.2l16.3-15a3.33,3.33,0,0,0,.2-4.68L53.52,14a3.33,3.33,0,0,0-4.68-.2M62.31,25.05a2.33,2.33,0,0,1-.14,3.29l-16.29,15a2.33,2.33,0,0,1-3.29-.14L33.08,32.81a2.31,2.31,0,0,1-.57-1.12h-.38a.5.5,0,0,1,0-1h.38a2.32,2.32,0,0,1,.7-1.19l16.29-15a2.28,2.28,0,0,1,.9-.52l0-.61A.49.49,0,0,1,51,13a.48.48,0,0,1,.45.52l0,.46a2.34,2.34,0,0,1,1.4.73Z"/><path class="cls-5" d="M50,31.77a.5.5,0,0,0,.16-.33L51.4,14a2.37,2.37,0,0,0-1,.08L49.17,30.91l-16.65-.2a2.31,2.31,0,0,0,0,1l17.12.21a.49.49,0,0,0,.33-.13"/><path class="cls-5" d="M51.21,89A4.86,4.86,0,0,0,54,89.8h0a4.9,4.9,0,0,0,4-2.24L65,77c1.15-1.79.28-5.72-1.28-8a6.32,6.32,0,0,0-1.31-1.65L51,57a7.2,7.2,0,0,0-1.24-.89,11.3,11.3,0,0,0-6.2-1.72,4.5,4.5,0,0,0-2.69.8l-9.82,8a4.93,4.93,0,0,0-.77,6.91,2.45,2.45,0,0,0,2.09.67c2.43-.08,6.12-1.56,7.62-2.21a3.5,3.5,0,0,0,.28.27L51.7,79.16l.06.06a35.28,35.28,0,0,0-1.32,5.6c-.3,2.3,0,3.67.77,4.19m1.61-9.81a.5.5,0,0,0-.17-.55c-.11-.08-.2-.16-.28-.23L40.94,68.08q-.22-.21-.45-.45a.5.5,0,0,0-.39-.18.53.53,0,0,0-.18,0c-2.39,1-5.63,2.2-7.58,2.26a1.71,1.71,0,0,1-1.27-.29A3.91,3.91,0,0,1,31.68,64l9.82-8a3.54,3.54,0,0,1,2.09-.58,10.21,10.21,0,0,1,5.6,1.55l.06,0a5.4,5.4,0,0,1,1.08.76L61.76,68a5.28,5.28,0,0,1,1.12,1.41l0,0c1.33,2,2.2,5.54,1.28,7L57.17,87a3.94,3.94,0,0,1-5.42,1.16c-.74-.49-.62-3.8,1.07-9"/><path class="cls-5" d="M41.15,59.34a3.12,3.12,0,0,0-3,3.28,3.13,3.13,0,1,0,3-3.28m1.67,4.55A2.12,2.12,0,1,1,39.67,61a2.05,2.05,0,0,1,1.51-.7,2.1,2.1,0,0,1,1.49.54,2.12,2.12,0,0,1,.7,1.48,2.07,2.07,0,0,1-.55,1.53"/><path class="cls-5" d="M51.71,67.71a3.15,3.15,0,0,0-4.42.22,3.14,3.14,0,0,0,.23,4.42,3.13,3.13,0,1,0,4.19-4.64m-.52,3.75a2.13,2.13,0,1,1-1.64-3.56,2.13,2.13,0,0,1,2.19,2,2.12,2.12,0,0,1-.55,1.53"/><path class="cls-5" d="M59.58,72.23a1.76,1.76,0,0,0,1.23-.57,1.73,1.73,0,1,0-2.45.12,1.76,1.76,0,0,0,1.22.45M59,70a.73.73,0,1,1,1.08,1,.71.71,0,0,1-.52.24A.74.74,0,0,1,59,70"/><path class="cls-5" d="M59.75,74.76a1.73,1.73,0,0,0,3,1.07,1.72,1.72,0,0,0-.12-2.44,1.69,1.69,0,0,0-1.22-.45,1.72,1.72,0,0,0-1.23.57,1.69,1.69,0,0,0-.44,1.25m1.18-.58a.71.71,0,0,1,.52-.24.72.72,0,0,1,.52.19.74.74,0,0,1,.24.5.72.72,0,0,1-.19.53.73.73,0,0,1-1,0,.7.7,0,0,1-.24-.5.72.72,0,0,1,.18-.53"/><path class="cls-5" d="M55.49,73.58a1.74,1.74,0,0,0,1.11-3,1.73,1.73,0,1,0-1.11,3m-.6-2.23a.75.75,0,0,1,.53-.24A.74.74,0,0,1,56,72.34a.77.77,0,0,1-.52.24.78.78,0,0,1-.51-.19.74.74,0,0,1-.06-1"/><path class="cls-5" d="M56.23,77.3a1.73,1.73,0,0,0,2.45-.12,1.74,1.74,0,0,0-.13-2.45,1.68,1.68,0,0,0-1.21-.44,1.66,1.66,0,0,0-1.23.57,1.73,1.73,0,0,0,.12,2.44m.62-1.77a.73.73,0,0,1,1,0,.73.73,0,0,1,.06,1,.75.75,0,0,1-.53.24.69.69,0,0,1-.51-.19.73.73,0,0,1,0-1"/><path class="cls-5" d="M12.78,52.85l6.8,7.35a5.8,5.8,0,0,0,8.18.32l7.35-6.8a5.79,5.79,0,0,0,.31-8.18l-6.79-7.35a5.8,5.8,0,0,0-8.18-.31L13.1,44.67a5.8,5.8,0,0,0-.32,8.18m8.51-14.06a4.55,4.55,0,0,1,6.43.25l6.79,7.34a4.54,4.54,0,0,1-.25,6.43l-7.34,6.8a4.57,4.57,0,0,1-6.43-.25L13.69,52a4.57,4.57,0,0,1,.25-6.43Z"/><path class="cls-5" d="M20.15,52.85a5.38,5.38,0,1,0,.3-7.61,5.4,5.4,0,0,0-.3,7.61m7-6.47a4.14,4.14,0,1,1-5.85-.22,4.15,4.15,0,0,1,5.85.22"/><path class="cls-5" d="M31.77,50.27a1.08,1.08,0,0,0,.75.35,1.07,1.07,0,0,0,.78-.29,1.08,1.08,0,0,0,.35-.75,1.11,1.11,0,0,0-.29-.78,1.07,1.07,0,0,0-.75-.34,1.06,1.06,0,0,0-.78.28,1.08,1.08,0,0,0-.06,1.53"/></g></g><rect class="cls-6" x="53.09" y="39.28" width="19.24" height="19.24" transform="translate(-16.21 58.67) rotate(-45)"/><rect class="cls-6" x="5.84" y="67.13" width="19.24" height="19.24" transform="translate(-49.74 33.41) rotate(-45)"/><rect class="cls-6" x="5.84" y="12.53" width="19.24" height="19.24" transform="translate(-11.14 17.42) rotate(-45)"/></svg>